<svg width="114" height="30" viewBox="0 0 114 30" fill="none" xmlns="http://www.w3.org/2000/svg">
<path d="M109.73 22.8673V22.5264H111.336V22.8673H110.737V24.4819H110.329V22.8673H109.73Z" fill="white"/>
<path d="M111.601 22.5264H112.111L112.649 23.8403H112.672L113.211 22.5264H113.72V24.4819H113.319V23.2091H113.303L112.797 24.4724H112.524L112.018 23.2043H112.002V24.4819H111.601V22.5264Z" fill="white"/>
<path d="M39.1644 29.871V23.8491H36.798V22.5073H43.1552V23.8491H40.7781V29.871H39.1644Z" fill="white"/>
<path d="M44.1122 29.8708V22.1099H45.6075V24.847H45.6829C45.8048 24.6965 45.9498 24.566 46.1187 24.455C46.2871 24.3439 46.4773 24.2564 46.6888 24.1922C46.9003 24.1276 47.1317 24.0958 47.3826 24.0958C47.7554 24.0958 48.0817 24.1639 48.3614 24.2997C48.6412 24.4355 48.858 24.6505 49.0122 24.9438C49.1665 25.2371 49.2437 25.6203 49.2437 26.0923V29.8708H47.7483V26.3285C47.7483 26.1498 47.7266 25.9976 47.6836 25.8724C47.6406 25.7472 47.5777 25.6437 47.4952 25.561C47.4127 25.4787 47.3103 25.4199 47.1889 25.384C47.0669 25.3482 46.9308 25.3305 46.7801 25.3305C46.5576 25.3305 46.3567 25.384 46.1776 25.4915C45.9981 25.599 45.8584 25.7455 45.7582 25.9317C45.6576 26.1179 45.6075 26.3325 45.6075 26.5758V29.8712H44.1122V29.8708Z" fill="white"/>
<path d="M53.159 29.9999C52.5353 29.9999 52.0117 29.8942 51.5884 29.6831C51.165 29.4721 50.8462 29.1483 50.6312 28.7116C50.4162 28.2754 50.3085 27.7207 50.3085 27.0478C50.3085 26.3749 50.4162 25.8117 50.6312 25.3786C50.8462 24.946 51.1636 24.6239 51.583 24.4125C52.0024 24.2014 52.5171 24.0957 53.1267 24.0957C53.7003 24.0957 54.1845 24.1979 54.579 24.4018C54.9731 24.6058 55.271 24.9208 55.4719 25.3464C55.6727 25.7724 55.7729 26.3214 55.7729 26.9938V27.3805H51.8251C51.8393 27.7096 51.8911 27.9888 51.9811 28.2179C52.0707 28.4471 52.2103 28.617 52.4005 28.728C52.5903 28.839 52.8434 28.8943 53.159 28.8943C53.3311 28.8943 53.4871 28.8727 53.6272 28.8298C53.7668 28.7868 53.887 28.7223 53.9876 28.6364C54.0878 28.5506 54.1667 28.4431 54.2244 28.3144C54.2815 28.1856 54.3104 28.0388 54.3104 27.8742H55.7733C55.7733 28.2321 55.7086 28.5435 55.5796 28.8081C55.4506 29.0731 55.271 29.2929 55.0418 29.4681C54.8122 29.6438 54.5378 29.776 54.219 29.8654C53.8998 29.9548 53.547 29.9994 53.1595 29.9994L53.159 29.9999ZM51.8468 26.436H54.235C54.235 26.2214 54.208 26.0352 54.1543 25.8777C54.1007 25.7202 54.0271 25.5914 53.934 25.491C53.8409 25.391 53.7278 25.3176 53.5953 25.2711C53.4623 25.2247 53.3138 25.2012 53.1489 25.2012C52.8762 25.2012 52.6488 25.2459 52.4657 25.3353C52.2826 25.4247 52.1429 25.5609 52.0463 25.7432C51.9497 25.9254 51.8832 26.1564 51.8473 26.4355L51.8468 26.436Z" fill="white"/>
<path d="M60.3224 29.871L58.386 22.5073H60.0857L61.1612 26.8976C61.1829 26.9622 61.2042 27.0569 61.2259 27.1821C61.2476 27.3073 61.2689 27.4378 61.2906 27.5741C61.3124 27.7099 61.3301 27.8315 61.3443 27.939H61.3979C61.4121 27.8603 61.425 27.7709 61.4356 27.6705C61.4463 27.5705 61.4604 27.4719 61.4786 27.3754C61.4964 27.279 61.5145 27.1874 61.5323 27.1016C61.55 27.0158 61.5628 26.9476 61.5699 26.8976L62.5705 22.5073H64.4852L65.5071 26.8976C65.5288 26.9693 65.5501 27.0657 65.5718 27.1874C65.5936 27.3091 65.6148 27.4378 65.6366 27.5741C65.6583 27.7099 65.676 27.8315 65.6902 27.939H65.7438C65.758 27.8603 65.7744 27.7745 65.7922 27.6816C65.8099 27.5887 65.8281 27.4935 65.8458 27.3971C65.8635 27.3007 65.8835 27.2091 65.9048 27.1233C65.9265 27.0374 65.9442 26.9622 65.9584 26.8976L67.0233 22.5073H68.5616L66.6145 29.871H64.7858L63.6992 25.3413C63.6775 25.2413 63.6545 25.125 63.6292 24.9922C63.6039 24.86 63.5809 24.729 63.5591 24.6003C63.5374 24.4716 63.5197 24.357 63.5055 24.257H63.4625C63.4479 24.3574 63.4319 24.4755 63.4142 24.6113C63.396 24.7472 63.3747 24.8799 63.3494 25.0086C63.3242 25.1374 63.3011 25.2484 63.2794 25.3413L62.2039 29.871H60.3215H60.3224Z" fill="white"/>
<path d="M71.3911 29.9999C70.7745 29.9999 70.2509 29.8942 69.8204 29.6831C69.39 29.4721 69.0637 29.1465 68.8416 28.7063C68.619 28.2661 68.5082 27.7136 68.5082 27.0478C68.5082 26.382 68.6195 25.8117 68.8416 25.3786C69.0637 24.946 69.39 24.6239 69.8204 24.4125C70.2509 24.2014 70.774 24.0957 71.3911 24.0957C72.0082 24.0957 72.5509 24.2014 72.9778 24.4125C73.4043 24.6235 73.7288 24.9455 73.9513 25.3786C74.1734 25.8117 74.2847 26.3683 74.2847 27.0478C74.2847 27.7273 74.1734 28.2661 73.9513 28.7063C73.7288 29.1465 73.4043 29.4721 72.9778 29.6831C72.5509 29.8942 72.022 29.9999 71.3911 29.9999ZM71.3911 28.8408C71.721 28.8408 71.9843 28.7802 72.1816 28.6586C72.3788 28.5369 72.5238 28.3511 72.6174 28.1003C72.7105 27.8499 72.7574 27.542 72.7574 27.177V26.9195C72.7574 26.5545 72.7109 26.2471 72.6174 25.9962C72.5243 25.7458 72.3788 25.5578 72.1816 25.4326C71.9843 25.3074 71.7205 25.2446 71.3911 25.2446C71.0617 25.2446 70.8086 25.3074 70.6113 25.4326C70.414 25.5578 70.2686 25.7458 70.1755 25.9962C70.082 26.2466 70.0354 26.5545 70.0354 26.9195V27.177C70.0354 27.542 70.082 27.8499 70.1755 28.1003C70.2686 28.3506 70.4136 28.5369 70.6113 28.6586C70.8086 28.7802 71.0684 28.8408 71.3911 28.8408Z" fill="white"/>
<path d="M75.3817 29.8706V24.2244H76.6186L76.737 25.1047H76.8123C76.8837 24.9189 76.9772 24.749 77.0921 24.5951C77.2069 24.4411 77.3501 24.3177 77.5225 24.2248C77.6945 24.1319 77.8954 24.0854 78.125 24.0854C78.2469 24.0854 78.3578 24.0978 78.4584 24.1231C78.5586 24.1483 78.6339 24.1713 78.684 24.193V25.5453H78.2217C77.9991 25.5453 77.804 25.5759 77.6356 25.6365C77.4671 25.6975 77.3252 25.7922 77.2104 25.9209C77.0956 26.0497 77.0114 26.2072 76.9577 26.3934C76.9041 26.5797 76.877 26.7978 76.877 27.0482V29.8711H75.3817V29.8706Z" fill="white"/>
<path d="M79.4697 29.8708V22.1099H80.9651V29.8708H79.4697Z" fill="white"/>
<path d="M84.3422 30C83.8758 30 83.4724 29.8942 83.1319 29.6832C82.7915 29.4722 82.5277 29.1483 82.3415 28.7117C82.1549 28.2755 82.0618 27.7172 82.0618 27.0372C82.0618 26.3573 82.1566 25.8012 82.3468 25.3681C82.5366 24.9354 82.7986 24.6151 83.1319 24.4072C83.4653 24.1997 83.851 24.0958 84.2881 24.0958C84.532 24.0958 84.7594 24.1228 84.9713 24.1763C85.1828 24.2298 85.3694 24.3143 85.5308 24.4284C85.6922 24.543 85.83 24.6824 85.9448 24.847H86.0096V22.1099H87.5049V29.8708H86.2787L86.1603 29.1085H86.0849C85.8983 29.4089 85.6545 29.6328 85.3535 29.7796C85.0524 29.9261 84.7151 29.9995 84.3422 29.9995V30ZM84.8157 28.7763C85.0954 28.7763 85.3229 28.7117 85.4989 28.583C85.6744 28.4542 85.8052 28.268 85.8916 28.0247C85.9776 27.7813 86.0207 27.4916 86.0207 27.1554V26.962C86.0207 26.7116 85.9972 26.4825 85.9506 26.275C85.9041 26.0675 85.8305 25.8941 85.7303 25.7543C85.6296 25.6149 85.5046 25.5074 85.3539 25.4322C85.2032 25.357 85.0241 25.3194 84.8161 25.3194C84.5151 25.3194 84.2744 25.3783 84.0953 25.4964C83.9158 25.6145 83.7867 25.7932 83.7078 26.033C83.6289 26.2728 83.5895 26.5714 83.5895 26.9293V27.1762C83.5895 27.5341 83.6289 27.8309 83.7078 28.0671C83.7867 28.3034 83.9158 28.4803 84.0953 28.5985C84.2744 28.7166 84.5147 28.7754 84.8161 28.7754L84.8157 28.7763Z" fill="white"/>
<path d="M88.9138 25.7921V25.1909C89.0858 25.1626 89.2312 25.0927 89.3495 24.9816C89.4679 24.8706 89.5575 24.7277 89.6186 24.5521C89.6794 24.3769 89.71 24.1889 89.71 23.9885H88.9785V22.5073H90.4738V23.8491C90.4738 24.2716 90.4002 24.6184 90.2535 24.8905C90.1063 25.1626 89.9148 25.3701 89.678 25.5129C89.4413 25.6563 89.1868 25.7492 88.9142 25.7921H88.9138Z" fill="white"/>
<path d="M93.5391 29.9999C93.1445 29.9999 92.7899 29.957 92.4742 29.8712C92.1586 29.7853 91.8895 29.6654 91.6674 29.5115C91.4448 29.3575 91.2746 29.1735 91.1562 28.9585C91.0378 28.7439 90.9789 28.5006 90.9789 28.2285V28.1427C90.9789 28.1144 90.9824 28.0927 90.9895 28.0781H92.4308V28.164C92.4379 28.3427 92.4955 28.4878 92.6028 28.5988C92.7105 28.7099 92.8519 28.7904 93.0275 28.8404C93.203 28.8904 93.3879 28.9156 93.5816 28.9156C93.7537 28.9156 93.9203 28.8997 94.0817 28.8674C94.2431 28.8351 94.3792 28.7762 94.4905 28.6904C94.6017 28.6046 94.6571 28.4935 94.6571 28.3577C94.6571 28.1861 94.5871 28.0538 94.4475 27.9605C94.3078 27.8676 94.1247 27.7923 93.8991 27.7348C93.6734 27.6778 93.4274 27.6132 93.1623 27.5415C92.9184 27.4844 92.6746 27.4181 92.4308 27.3429C92.1869 27.2677 91.9662 27.1695 91.7693 27.0478C91.5721 26.9261 91.4125 26.7669 91.2905 26.57C91.1686 26.3731 91.1079 26.1245 91.1079 25.8241C91.1079 25.5238 91.1726 25.2751 91.3016 25.0566C91.4306 24.8385 91.608 24.6575 91.8341 24.5147C92.0602 24.3718 92.3253 24.266 92.6303 24.1979C92.9348 24.1298 93.2629 24.0957 93.6144 24.0957C93.9443 24.0957 94.2524 24.1298 94.5397 24.1979C94.8265 24.266 95.0774 24.366 95.2924 24.4983C95.5074 24.6306 95.6759 24.7951 95.7978 24.992C95.9197 25.1889 95.9809 25.4087 95.9809 25.652V25.7914C95.9809 25.8343 95.9774 25.8631 95.9703 25.8772H94.5397V25.7914C94.5397 25.6627 94.5002 25.5534 94.4213 25.464C94.3424 25.3747 94.2293 25.3048 94.0826 25.2548C93.9354 25.2048 93.7581 25.1796 93.5502 25.1796C93.4065 25.1796 93.2757 25.1902 93.1574 25.2119C93.039 25.2335 92.9371 25.2654 92.851 25.3083C92.765 25.3512 92.6985 25.4034 92.652 25.464C92.6054 25.5251 92.5819 25.5981 92.5819 25.6839C92.5819 25.8056 92.6338 25.9038 92.738 25.979C92.8417 26.0542 92.98 26.117 93.1521 26.167C93.3241 26.217 93.5143 26.271 93.7222 26.328C93.9802 26.3997 94.2511 26.4696 94.5343 26.5373C94.8176 26.6054 95.081 26.6965 95.3248 26.8111C95.5686 26.9257 95.7659 27.0885 95.9166 27.2995C96.0674 27.5105 96.1423 27.795 96.1423 28.1529C96.1423 28.5108 96.0758 28.7864 95.9432 29.0222C95.8107 29.2584 95.6258 29.4482 95.3891 29.5911C95.1523 29.7345 94.8762 29.838 94.5609 29.9026C94.2453 29.9672 93.9048 29.999 93.5391 29.999V29.9999Z" fill="white"/>
<path d="M98.7131 29.871L101.553 22.5073H103.532L106.372 29.871H104.641L104.114 28.4217H100.897L100.37 29.871H98.7135H98.7131ZM101.359 27.1339H103.65L102.994 25.3196C102.965 25.2409 102.931 25.1462 102.892 25.0352C102.852 24.9241 102.811 24.8007 102.768 24.6649C102.725 24.5291 102.684 24.395 102.644 24.2623C102.605 24.13 102.567 24.0101 102.531 23.9026H102.467C102.431 24.0384 102.384 24.1977 102.327 24.3804C102.269 24.5627 102.212 24.7383 102.155 24.9064C102.097 25.0745 102.051 25.2121 102.015 25.3196L101.359 27.1339Z" fill="white"/>
<path d="M107.254 29.871V22.5073H108.857V29.871H107.254Z" fill="white"/>
<path d="M47.7923 14.7357C46.762 16.4872 44.9131 17.7899 42.8103 17.7899C39.1126 17.7899 36.798 14.9383 36.798 11.5656C36.798 8.19293 39.5077 5.45713 42.8244 5.45713C44.9272 5.45713 46.7761 6.64409 47.8064 8.39558C47.8769 8.54033 47.8346 8.71403 47.6935 8.80088C47.5523 8.88773 45.3365 10.1905 45.3365 10.1905C45.1954 10.2773 45.026 10.2194 44.9414 10.0892C44.4756 9.39436 43.7135 8.94563 42.8244 8.94563C41.413 8.94563 40.2699 10.1181 40.2699 11.5656C40.2699 13.0131 41.413 14.1856 42.8244 14.1856C43.6994 14.1856 44.4756 13.7369 44.9414 13.0421C45.026 12.8973 45.2095 12.8539 45.3507 12.9263C45.3507 12.9263 47.5664 14.2435 47.7076 14.3159C47.8346 14.4028 47.8769 14.5909 47.7923 14.7357ZM78.5593 0.622431C77.5573 0.622431 76.7387 1.46199 76.7387 2.48972C76.7387 3.51746 77.5573 4.35702 78.5593 4.35702C79.5614 4.35702 80.3799 3.51746 80.3799 2.48972C80.3799 1.46199 79.5614 0.622431 78.5593 0.622431ZM80.2388 5.83348C80.2388 5.65978 80.0977 5.5295 79.9424 5.5295C79.9424 5.5295 77.3315 5.5295 77.1762 5.5295C77.021 5.5295 76.8798 5.67425 76.8798 5.83348V17.3412C76.8798 17.5149 77.021 17.6452 77.1762 17.6452H79.9424C80.1118 17.6452 80.2388 17.5004 80.2388 17.3412V5.83348ZM107.125 0.622431C106.123 0.622431 105.304 1.46199 105.304 2.48972C105.304 3.51746 106.123 4.35702 107.125 4.35702C108.127 4.35702 108.945 3.51746 108.945 2.48972C108.945 1.46199 108.127 0.622431 107.125 0.622431ZM108.804 5.83348C108.804 5.65978 108.663 5.5295 108.508 5.5295C108.508 5.5295 105.897 5.5295 105.742 5.5295C105.586 5.5295 105.445 5.67425 105.445 5.83348V17.3412C105.445 17.5149 105.586 17.6452 105.742 17.6452H108.508C108.677 17.6452 108.804 17.5004 108.804 17.3412V5.83348ZM52.9436 0.303978C52.9436 0.130276 52.8025 0 52.6472 0C52.6472 0 50.0363 0 49.881 0C49.7258 0 49.5846 0.144751 49.5846 0.303978V17.3412C49.5846 17.5149 49.7258 17.6452 49.881 17.6452H52.6472C52.8166 17.6452 52.9436 17.5004 52.9436 17.3412V0.303978ZM90.5415 5.5295C90.5415 5.5295 88.3116 5.5295 88.0152 5.5295C87.6483 5.5295 87.6483 5.2979 87.6483 5.09525C87.6483 3.28586 87.6624 3.48851 90.4568 3.48851C90.6121 3.48851 90.7391 3.35823 90.7391 3.199C90.7391 3.199 90.7391 0.579005 90.7391 0.419779C90.7391 0.260552 90.7391 0.0144751 90.3863 0.0144751C88.3963 0.0144751 84.3175 -0.376354 84.2893 5.19657C84.2893 5.21105 84.2893 5.5295 84.0494 5.5295C83.499 5.5295 82.2711 5.5295 82.2711 5.5295C82.1018 5.5295 81.9747 5.67425 81.9747 5.83348V8.68508C81.9747 8.85878 82.1159 8.98906 82.2711 8.98906H84.0071C84.247 8.98906 84.2893 8.98906 84.2893 9.26408V17.3412C84.2893 17.5149 84.4305 17.6452 84.5857 17.6452H87.3519C87.5213 17.6452 87.6483 17.5004 87.6483 17.3412V9.24961C87.6483 8.98906 87.733 8.98906 87.9588 8.98906H90.5415C90.7109 8.98906 90.8379 8.84431 90.8379 8.68508C90.8379 8.68508 90.8379 6.00718 90.8379 5.83348C90.8379 5.65978 90.7109 5.5295 90.5415 5.5295ZM66.2384 5.83348V17.3412C66.2384 17.5149 66.0972 17.6452 65.942 17.6452H63.1899C62.8794 17.6452 62.8935 17.2399 62.8935 17.2399C62.8935 17.0662 62.7524 16.9649 62.6112 17.0517C62.6112 17.0517 61.6515 17.7755 60.2826 17.7755C56.726 17.7755 54.3267 15.141 54.3267 11.5077C54.3267 8.13503 56.9941 5.44265 60.1979 5.44265C61.5527 5.44265 62.6254 6.09403 62.6254 6.09403C62.7806 6.18088 62.9359 6.07956 62.9359 5.92033C62.9359 5.92033 62.9217 5.51503 63.2322 5.51503H65.942C66.1114 5.5295 66.2384 5.65978 66.2384 5.83348ZM62.8935 11.5656C62.8935 10.0892 61.7362 8.90221 60.3108 8.90221C58.8853 8.90221 57.728 10.0892 57.728 11.5656C57.728 13.0421 58.8853 14.2291 60.3108 14.2291C61.7362 14.2291 62.8935 13.0421 62.8935 11.5656ZM71.3756 17.6307H68.5812C68.4118 17.6307 68.2848 17.486 68.2848 17.3267V5.819C68.2848 5.6453 68.4118 5.51503 68.5812 5.51503H71.4039C71.7143 5.51503 71.7002 5.92033 71.7002 5.92033C71.7002 6.06508 71.8131 6.15193 71.9402 6.12298C72.0107 6.10851 72.1801 6.00718 72.3071 5.96376C72.7446 5.77558 73.5209 5.54398 74.9463 5.54398C75.2991 5.54398 75.2991 5.79005 75.2991 5.94928C75.2991 6.10851 75.2991 8.71403 75.2991 8.71403C75.2991 8.87326 75.1721 9.00353 75.0169 9.00353C72.5188 9.00353 71.7567 9.29304 71.6579 10.6103L71.672 17.3557C71.672 17.5004 71.5309 17.6307 71.3756 17.6307ZM103.356 5.83348V17.3412C103.356 17.5149 103.215 17.6452 103.06 17.6452H100.308C99.9975 17.6452 100.012 17.2399 100.012 17.2399C100.012 17.0662 99.8704 16.9649 99.7293 17.0517C99.7293 17.0517 98.7696 17.7755 97.4006 17.7755C93.844 17.7755 91.4448 15.141 91.4448 11.5077C91.4448 8.13503 94.1122 5.44265 97.3159 5.44265C98.6708 5.44265 99.7434 6.09403 99.7434 6.09403C99.8987 6.18088 100.054 6.07956 100.054 5.92033C100.054 5.92033 100.04 5.51503 100.35 5.51503H103.06C103.229 5.5295 103.356 5.65978 103.356 5.83348ZM100.012 11.5656C100.012 10.0892 98.8543 8.90221 97.4288 8.90221C96.0034 8.90221 94.8461 10.0892 94.8461 11.5656C94.8461 13.0421 96.0034 14.2291 97.4288 14.2291C98.8543 14.2291 100.012 13.0421 100.012 11.5656Z" fill="white"/>
<path d="M3.33755 19.341C1.49552 19.341 0 17.819 0 15.9442C0 14.0695 1.49552 12.566 3.31932 12.566C5.14311 12.566 6.63863 14.088 6.63863 15.9442C6.63863 17.8004 5.17959 19.341 3.33755 19.341ZM20.5542 3.50781C18.0921 3.50781 17.9827 5.62386 14.2256 5.62386C10.4321 5.62386 10.1221 3.50781 7.87881 3.50781C6.03678 3.50781 4.5595 5.02988 4.5595 6.88606C4.5595 8.74224 6.05501 10.2643 7.87881 10.2643C10.3592 10.2643 10.4686 8.14826 14.2256 8.14826C18.0191 8.14826 18.3292 10.2643 20.5725 10.2643C22.4145 10.2643 23.8918 8.74224 23.8918 6.88606C23.8918 5.02988 22.3963 3.50781 20.5542 3.50781ZM20.5542 21.6056C18.0739 21.6056 17.9644 23.7216 14.2074 23.7216C10.4139 23.7216 10.1038 21.6056 7.86058 21.6056C6.01854 21.6056 4.54126 23.1276 4.54126 24.9838C4.54126 26.84 6.03678 28.3621 7.86058 28.3621C10.3409 28.3621 10.4504 26.246 14.2074 26.246C18.0009 26.246 18.3109 28.3621 20.5542 28.3621C22.3963 28.3621 23.8735 26.84 23.8735 24.9838C23.8735 23.1276 22.3963 21.6056 20.5542 21.6056ZM25.4785 12.566C22.9799 12.566 23.0711 14.7934 19.9341 14.7934C17.0343 14.7934 16.9978 12.5845 14.2074 12.5845C12.4748 12.5845 11.0522 14.1994 11.0522 15.9628C11.0522 17.7261 12.493 19.341 14.3715 19.341C16.8701 19.341 16.779 17.1136 19.9159 17.1136C22.8157 17.1136 22.8522 19.3225 25.6426 19.3225C27.3752 19.3225 28.7978 17.7076 28.7978 15.9442C28.816 14.1808 27.3752 12.566 25.4785 12.566Z" fill="#1955FF"/>
</svg>
